<svg width="24" height="24" viewBox="0 0 24 24" fill="none" xmlns="http://www.w3.org/2000/svg">
<path opacity="0.72" d="M3.27393 18.7042V14.0083L5.65867 14.3237V16.4601C5.65802 17.1335 5.43278 17.7791 5.03235 18.2553C4.63192 18.7314 4.089 18.9993 3.52272 19C3.45673 19 3.39345 18.9689 3.34679 18.9134C3.30014 18.8579 3.27393 18.7827 3.27393 18.7042Z" fill="#475364"/>
<path d="M13.1599 5.29584V8.95207L13.1601 13.982V17.6382C13.1601 17.688 13.1495 17.7369 13.1294 17.7805C13.1093 17.8241 13.0802 17.861 13.0449 17.8877C13.0096 17.9145 12.9692 17.9302 12.9275 17.9334C12.8858 17.9367 12.844 17.9273 12.8061 17.9063L8.12346 15.3078C7.33523 14.8717 6.50853 14.5416 5.65873 14.3237L3.27399 14.0083L3.19238 8.92712C3.53746 8.92712 3.88303 8.9074 4.22764 8.87042L4.7586 8.79966C5.55257 8.67036 6.33338 8.44518 7.08895 8.12759L7.58653 7.90368C7.76767 7.81677 7.9466 7.7243 8.12329 7.62628L12.8059 5.02775C12.8438 5.00671 12.8856 4.99739 12.9273 5.00063C12.9691 5.00387 13.0095 5.01959 13.0448 5.04631C13.08 5.07304 13.1091 5.10991 13.1292 5.15353C13.1493 5.19714 13.1599 5.24609 13.1599 5.29584Z" fill="#475364"/>
<path opacity="0.88" d="M3.19254 14.0069C2.97157 14.0063 2.75507 13.9329 2.56704 13.7949C2.46361 13.7069 2.23911 13.488 2.16851 13.3161C2.05806 13.0964 1.99987 12.8452 2.00017 12.5893V12.1822L2 11.565V10.345C2.00036 9.96906 2.1261 9.60867 2.34964 9.34286C2.57318 9.07705 2.87625 8.92754 3.19237 8.92712L3.27398 14.0083C3.24682 14.008 3.21966 14.0069 3.19254 14.0069Z" fill="#475364"/>
<path opacity="0.72" d="M14.4756 13.1338C14.1374 13.596 13.6701 13.8972 13.1599 13.9819L13.1597 8.95203C13.67 9.03676 14.1374 9.33799 14.4756 9.80018C14.8137 10.2624 15 10.8543 15 11.467C15 12.0796 14.8137 12.6716 14.4756 13.1338Z" fill="#475364"/>
<path opacity="0.4" d="M21.0838 17H17.9175C17.41 17 17 17.41 17 17.9162V21.0825C17 21.59 17.41 22 17.9162 22H21.0825C21.59 22 22 21.59 22 21.0838V17.9175C22 17.41 21.59 17 21.0838 17Z" fill="#475364"/>
<path opacity="0.64" d="M21.0838 9.5H17.9175C17.41 9.5 17 9.91 17 10.4162V13.5825C17 14.09 17.41 14.5 17.9162 14.5H21.0825C21.59 14.5 22 14.09 22 13.5838V10.4175C22 9.91 21.59 9.5 21.0838 9.5Z" fill="#475364"/>
<path opacity="0.48" d="M21.0838 2H17.9175C17.41 2 17 2.41 17 2.91625V6.0825C17 6.59 17.41 7 17.9162 7H21.0825C21.59 7 22 6.59 22 6.08375V2.91625C22 2.41 21.59 2 21.0838 2Z" fill="#475364"/>
</svg>
