<svg width="24" height="24" viewBox="0 0 24 24" fill="none" xmlns="http://www.w3.org/2000/svg">
<path d="M12.6641 1.27707L16.954 5.56707C16.9688 5.58198 16.9865 5.59381 17.0058 5.60188C17.0252 5.60995 17.046 5.61409 17.0671 5.61407H20.0001C20.2604 5.60762 20.5193 5.65415 20.7611 5.75082C21.0029 5.84749 21.2226 5.99228 21.4067 6.17642C21.5908 6.36056 21.7356 6.5802 21.8323 6.82201C21.929 7.06381 21.9755 7.32274 21.9691 7.58307V20.6181C21.9755 20.8784 21.929 21.1373 21.8323 21.3791C21.7356 21.6209 21.5908 21.8406 21.4067 22.0247C21.2226 22.2089 21.0029 22.3537 20.7611 22.4503C20.5193 22.547 20.2604 22.5935 20.0001 22.5871H3.96905C3.70879 22.5932 3.44999 22.5465 3.20832 22.4497C2.96664 22.353 2.74712 22.2082 2.56304 22.0241C2.37895 21.84 2.23415 21.6205 2.13738 21.3788C2.04061 21.1371 1.99389 20.8783 2.00005 20.6181V7.58707C1.99389 7.32681 2.04061 7.06802 2.13738 6.82634C2.23415 6.58466 2.37895 6.36514 2.56304 6.18106C2.74712 5.99698 2.96664 5.85217 3.20832 5.7554C3.44999 5.65863 3.70879 5.61191 3.96905 5.61807H6.90305C6.94544 5.61789 6.98604 5.601 7.01605 5.57107L11.3061 1.28107C11.4858 1.10088 11.7297 0.999289 11.9842 0.998539C12.2388 0.99779 12.4832 1.09795 12.6641 1.27707ZM3.96405 8.30307V19.8981C3.96405 20.089 4.03991 20.2722 4.17493 20.4072C4.30996 20.5422 4.49309 20.6181 4.68405 20.6181H19.2801C19.471 20.6181 19.6541 20.5422 19.7892 20.4072C19.9242 20.2722 20.0001 20.089 20.0001 19.8981V8.30707C20.0001 8.11612 19.9242 7.93298 19.7892 7.79796C19.6541 7.66293 19.471 7.58707 19.2801 7.58707H4.68905C4.49809 7.58707 4.31496 7.66293 4.17993 7.79796C4.04491 7.93298 3.96905 8.11612 3.96905 8.30707L3.96405 8.30307ZM11.517 3.60107L9.77305 5.34507C9.75072 5.36745 9.73553 5.39593 9.72938 5.42693C9.72323 5.45793 9.7264 5.49006 9.73848 5.51926C9.75057 5.54847 9.77104 5.57343 9.7973 5.59102C9.82356 5.6086 9.85445 5.61802 9.88605 5.61807H14.134C14.1655 5.61802 14.1963 5.60868 14.2225 5.59122C14.2487 5.57376 14.2692 5.54896 14.2813 5.51992C14.2935 5.49088 14.2969 5.4589 14.2909 5.42797C14.285 5.39705 14.2701 5.36856 14.2481 5.34607L12.5401 3.60607C12.4734 3.53817 12.394 3.48414 12.3064 3.4471C12.2188 3.41007 12.1247 3.39075 12.0296 3.39029C11.9345 3.38982 11.8402 3.40822 11.7522 3.44439C11.6643 3.48057 11.5843 3.53382 11.517 3.60107Z" fill="#475364"/>
<path opacity="0.72" d="M10.6811 9.60205H6.30511C6.12838 9.60205 5.98511 9.74532 5.98511 9.92205V12.2821C5.98511 12.4588 6.12838 12.6021 6.30511 12.6021H10.6811C10.8578 12.6021 11.0011 12.4588 11.0011 12.2821V9.92205C11.0011 9.74532 10.8578 9.60205 10.6811 9.60205Z" fill="#475364"/>
<path opacity="0.8" d="M10.6811 14.6182H6.30511C6.12838 14.6182 5.98511 14.7614 5.98511 14.9382V18.2822C5.98511 18.4589 6.12838 18.6022 6.30511 18.6022H10.6811C10.8578 18.6022 11.0011 18.4589 11.0011 18.2822V14.9382C11.0011 14.7614 10.8578 14.6182 10.6811 14.6182Z" fill="#475364"/>
<path opacity="0.88" d="M17.6651 9.60205H13.3561C13.1794 9.60205 13.0361 9.74532 13.0361 9.92205V18.2821C13.0361 18.4588 13.1794 18.6021 13.3561 18.6021H17.6651C17.8419 18.6021 17.9851 18.4588 17.9851 18.2821V9.92205C17.9851 9.74532 17.8419 9.60205 17.6651 9.60205Z" fill="#475364"/>
</svg>
