<svg width="56" height="56" viewBox="0 0 56 56" fill="none" xmlns="http://www.w3.org/2000/svg">
<path opacity="0.8" d="M23.3333 32.666C26.681 32.666 29.7739 33.1764 32.6121 34.1973C35.5231 35.133 37.8155 36.4516 39.4893 38.153C41.1631 39.7693 42 41.5558 42 43.5124V48.9994H4.66666V43.5124C4.66666 41.5558 5.50356 39.7693 7.17738 38.153C8.85119 36.4516 11.1072 35.133 13.9454 34.1973C16.8564 33.1764 19.9857 32.666 23.3333 32.666Z" fill="#475364"/>
<path d="M23.3333 7C26.5359 7 29.281 8.13728 31.5686 10.4118C33.8562 12.6864 35 15.4614 35 18.7367C35 21.9211 33.8562 24.6506 31.5686 26.9252C29.281 29.1997 26.5359 30.337 23.3333 30.337C20.1307 30.337 17.3856 29.1997 15.098 26.9252C12.8104 24.6506 11.6667 21.9211 11.6667 18.7367C11.6667 15.4614 12.8104 12.6864 15.098 10.4118C17.3856 8.13728 20.1307 7 23.3333 7Z" fill="#475364"/>
<path d="M51.3333 29.4H45.7333L45.7332 35H42.9332L42.9333 29.4H37.3333V26.6H42.9333L42.9332 21H45.7332L45.7333 26.6H51.3333V29.4Z" fill="#475364"/>
</svg>
