<svg width="48" height="48" viewBox="0 0 48 48" fill="none" xmlns="http://www.w3.org/2000/svg">
<path opacity="0.84" d="M30.278 19.0577V16.4257C30.2764 16.3131 30.2527 16.2018 30.2081 16.0983C30.1635 15.9948 30.099 15.9011 30.0182 15.8225C29.9374 15.744 29.842 15.6821 29.7373 15.6404C29.6326 15.5988 29.5207 15.5782 29.408 15.5797H23.254C23.1413 15.5813 23.0294 15.5607 22.9247 15.519C22.82 15.4774 22.7245 15.4155 22.6438 15.3369C22.563 15.2584 22.4984 15.1647 22.4539 15.0612C22.4093 14.9577 22.3856 14.8464 22.384 14.7337V9.52175C22.3361 8.56654 21.9297 7.66453 21.246 6.99575C20.5226 6.34999 19.5856 5.99525 18.616 6.00005C17.6464 6.00485 16.7129 6.36886 15.996 7.02175C15.335 7.71431 14.9687 8.63644 14.9743 9.5938C14.9799 10.5512 15.3569 11.469 16.026 12.1537C16.5493 12.6645 17.2179 13.0006 17.94 13.1157V14.7317C17.9384 14.8444 17.9147 14.9557 17.8701 15.0592C17.8255 15.1627 17.761 15.2564 17.6802 15.3349C17.5994 15.4135 17.504 15.4754 17.3993 15.517C17.2946 15.5587 17.1827 15.5793 17.07 15.5777H12.87C12.7573 15.5762 12.6454 15.5968 12.5407 15.6384C12.436 15.6801 12.3405 15.742 12.2598 15.8205C12.179 15.8991 12.1144 15.9928 12.0699 16.0963C12.0253 16.1998 12.0016 16.3111 12 16.4237V19.0557C12.0016 19.1684 12.0253 19.2797 12.0699 19.3832C12.1144 19.4867 12.179 19.5804 12.2598 19.659C12.3405 19.7375 12.436 19.7994 12.5407 19.8411C12.6454 19.8827 12.7573 19.9033 12.87 19.9017H17.07C17.1827 19.9001 17.2946 19.9208 17.3993 19.9624C17.504 20.0041 17.5994 20.066 17.6802 20.1445C17.761 20.2231 17.8255 20.3168 17.8701 20.4203C17.9147 20.5238 17.9384 20.6351 17.94 20.7477V33.0117C17.9449 34.1925 18.1831 35.3607 18.641 36.449C19.0989 37.5374 19.7673 38.5246 20.608 39.3537C22.3232 41.0548 24.6424 42.0069 27.058 42.0017C29.4622 41.9496 31.7572 40.9876 33.48 39.3097C34.3104 38.4859 34.9632 37.5006 35.398 36.4146C35.8328 35.3286 36.0404 34.1651 36.008 32.9957C36.0061 31.3875 35.6324 29.8016 34.916 28.3617C34.1824 26.8774 33.1019 25.5918 31.766 24.6137C31.3062 24.2274 30.7971 23.9039 30.252 23.6517C29.6131 23.3676 28.9165 23.2377 28.2182 23.2725C27.5198 23.3072 26.8395 23.5056 26.232 23.8517C25.534 24.2479 24.9488 24.8159 24.532 25.5017C24.0937 26.2075 23.8642 27.023 23.87 27.8537C23.8567 28.4518 23.968 29.0461 24.197 29.5988C24.426 30.1514 24.7676 30.6504 25.2 31.0637C25.6521 31.4946 26.1858 31.8309 26.7697 32.0528C27.3535 32.2746 27.9758 32.3776 28.6 32.3557C29.6 32.3734 30.5757 32.0472 31.364 31.4317C31.4988 31.9394 31.566 32.4625 31.564 32.9877C31.583 33.5938 31.4795 34.1974 31.2595 34.7624C31.0396 35.3274 30.7078 35.8421 30.284 36.2757C29.863 36.7103 29.355 37.0511 28.7932 37.2758C28.2315 37.5005 27.6285 37.6041 27.024 37.5797C26.4133 37.5981 25.8054 37.4919 25.2371 37.2677C24.6688 37.0434 24.1522 36.7058 23.7186 36.2755C23.285 35.8451 22.9436 35.3309 22.7152 34.7643C22.4868 34.1977 22.3761 33.5905 22.39 32.9797V20.7497C22.3916 20.6371 22.4153 20.5258 22.4599 20.4223C22.5044 20.3188 22.569 20.2251 22.6498 20.1465C22.7306 20.068 22.826 20.0061 22.9307 19.9644C23.0354 19.9228 23.1473 19.9022 23.26 19.9037H29.414C29.6405 19.9054 29.8585 19.8173 30.0204 19.6588C30.1822 19.5003 30.2748 19.2843 30.278 19.0577Z" fill="black"/>
<path d="M22.3819 9.52175C22.334 8.56654 21.9276 7.66453 21.2439 6.99575C20.5206 6.34999 19.5836 5.99525 18.614 6.00005C17.6443 6.00485 16.7109 6.36886 15.9939 7.02175C15.3329 7.71431 14.9666 8.63644 14.9722 9.5938C14.9778 10.5512 15.3549 11.469 16.0239 12.1537C16.5472 12.6645 17.2159 13.0006 17.9379 13.1157C18.4751 13.2455 19.035 13.2498 19.5742 13.1284C20.1133 13.007 20.6173 12.7631 21.047 12.4155C21.4767 12.068 21.8206 11.6262 22.0521 11.1244C22.2836 10.6226 22.3965 10.0742 22.3819 9.52175Z" fill="black"/>
<path d="M31.764 24.6124C31.3042 24.2261 30.7951 23.9026 30.25 23.6504C29.6112 23.3663 28.9145 23.2364 28.2162 23.2711C27.5179 23.3059 26.8375 23.5043 26.23 23.8504C25.532 24.2466 24.9468 24.8145 24.53 25.5004C24.0917 26.2062 23.8622 27.0216 23.868 27.8524C23.8547 28.4505 23.966 29.0448 24.195 29.5974C24.424 30.1501 24.7656 30.649 25.198 31.0624C25.6502 31.4933 26.1838 31.8295 26.7677 32.0514C27.3515 32.2733 27.9738 32.3763 28.598 32.3544C29.598 32.3721 30.5737 32.0459 31.362 31.4304C32.062 31.2724 34.338 28.3684 31.764 24.6124Z" fill="black"/>
</svg>
