<svg width="22" height="27" viewBox="0 0 22 27" fill="none" xmlns="http://www.w3.org/2000/svg">
<path opacity="0.08" d="M21.9305 8.06402C21.8859 7.95218 21.8199 7.85135 21.7379 7.76702L14.6045 0.435516C14.5225 0.351182 14.4244 0.283349 14.3155 0.237516C14.2085 0.191682 14.0926 0.166016 13.9731 0.166016H2.45053C1.46767 0.166016 0.666748 0.989182 0.666748 1.99935V24.9993C0.666748 26.0095 1.46767 26.8327 2.45053 26.8327H20.2163C21.1992 26.8327 22.0001 26.0095 22.0001 24.9993V8.41602C22.0001 8.29318 21.9751 8.17402 21.9305 8.06402Z" fill="#475364"/>
<path opacity="0.8" d="M21.9305 8.06402C21.8859 7.95218 21.8199 7.85135 21.7379 7.76702L14.6045 0.435516C14.5225 0.351182 14.4244 0.283349 14.3155 0.237516C14.2085 0.191682 14.0926 0.166016 13.9731 0.166016H2.45053C1.46767 0.166016 0.666748 0.989182 0.666748 1.99935V24.9993C0.666748 26.0095 1.46767 26.8327 2.45053 26.8327H20.2163C21.1992 26.8327 22.0001 26.0095 22.0001 24.9993V8.41602C22.0001 8.29318 21.9751 8.17402 21.9305 8.06402ZM14.8649 3.29552L18.9552 7.49935H14.8649V3.29552ZM19.3334 24.166H3.33341V2.83268H12.6667V7.49935C12.6667 9.49935 12.6667 9.49935 14.6667 9.49935H19.3334V24.166Z" fill="#475364"/>
<path fill-rule="evenodd" clip-rule="evenodd" d="M21.9305 8.06402C21.8859 7.95218 21.8199 7.85135 21.7379 7.76701L14.6045 0.435516C14.5225 0.351182 14.4244 0.283349 14.3155 0.237516C14.2085 0.191682 14.0926 0.166016 13.9731 0.166016H12.6667V2.83268V7.49935C12.6667 8.49935 12.6667 8.99935 12.9167 9.24935C13.1667 9.49935 13.6667 9.49935 14.6667 9.49935H19.3334H22.0001V8.41601C22.0001 8.29318 21.9751 8.17402 21.9305 8.06402ZM18.9552 7.49934L14.865 3.29551V7.49934H18.9552Z" fill="#475364"/>
<path opacity="0.88" d="M16.6667 20.1654C16.6667 20.1654 16.6667 18.832 15.3334 18.832L7.33342 18.832C6.00008 18.832 6.00008 20.1654 6.00008 20.1654C6.00008 20.1654 6.00008 21.4987 7.33341 21.4987L15.3334 21.4987C16.6667 21.4987 16.6667 20.1654 16.6667 20.1654Z" fill="#475364"/>
<path opacity="0.72" d="M14 16.1654C14 16.1654 14 14.832 12.6667 14.832L7.33333 14.832C6 14.832 6 16.1654 6 16.1654C6 16.1654 6 17.4987 7.33333 17.4987L12.6667 17.4987C14 17.4987 14 16.1654 14 16.1654Z" fill="#475364"/>
<path d="M6.36027 11.6755H5.21492V9.54465H4.66675V12.122H6.36027V11.6755Z" fill="#475364"/>
<path d="M7.52331 9.5C6.74643 9.5 6.25997 10.0126 6.25997 10.8342C6.25997 11.6541 6.74643 12.1667 7.52331 12.1667C8.29837 12.1667 8.78664 11.6541 8.78664 10.8342C8.78664 10.0126 8.29837 9.5 7.52331 9.5ZM7.52331 9.9501C7.95168 9.9501 8.22576 10.293 8.22576 10.8342C8.22576 11.3736 7.95168 11.7148 7.52331 11.7148C7.09312 11.7148 6.81904 11.3736 6.81904 10.8342C6.81904 10.293 7.09494 9.9501 7.52331 9.9501Z" fill="#475364"/>
<path d="M11.3334 11.0396V10.7485H10.2298V11.1414H10.7998L10.798 11.1825C10.7871 11.5022 10.5384 11.7184 10.1808 11.7184C9.74517 11.7184 9.46927 11.3772 9.46927 10.8182C9.46927 10.2698 9.72884 9.94653 10.1608 9.94653C10.4567 9.94653 10.68 10.1073 10.7598 10.377H11.3098C11.2318 9.85544 10.7707 9.5 10.159 9.5C9.38941 9.5 8.91021 10.0001 8.91021 10.8253C8.91021 11.663 9.38941 12.1667 10.1717 12.1667C10.9014 12.1667 11.3334 11.7416 11.3334 11.0396Z" fill="#475364"/>
</svg>
