<svg width="24" height="24" viewBox="0 0 24 24" fill="none" xmlns="http://www.w3.org/2000/svg">
<path opacity="0.08" d="M20.9478 7.9235C20.9144 7.83962 20.8649 7.764 20.8033 7.70075L15.4533 2.20212C15.3918 2.13887 15.3182 2.088 15.2366 2.05362C15.1563 2.01925 15.0694 2 14.9797 2H6.33784C5.60069 2 5 2.61738 5 3.375V20.625C5 21.3826 5.60069 22 6.33784 22H19.6622C20.3993 22 21 21.3826 21 20.625V8.1875C21 8.09538 20.9813 8.006 20.9478 7.9235Z" fill="#475364"/>
<path opacity="0.8" d="M20.9478 7.9235C20.9144 7.83962 20.8649 7.764 20.8033 7.70075L15.4533 2.20212C15.3918 2.13887 15.3182 2.088 15.2366 2.05362C15.1563 2.01925 15.0694 2 14.9797 2H6.33784C5.60069 2 5 2.61738 5 3.375V20.625C5 21.3826 5.60069 22 6.33784 22H19.6622C20.3993 22 21 21.3826 21 20.625V8.1875C21 8.09538 20.9813 8.006 20.9478 7.9235ZM15.6486 4.34713L18.7163 7.5H15.6486V4.34713ZM19 20H7V4H14V7.5C14 9 14 9 15.5 9H19V20Z" fill="#475364"/>
<path fill-rule="evenodd" clip-rule="evenodd" d="M20.9478 7.9235C20.9144 7.83962 20.8649 7.764 20.8033 7.70075L15.4533 2.20212C15.3918 2.13887 15.3182 2.088 15.2366 2.05362C15.1563 2.01925 15.0694 2 14.9797 2H14V4V7.5C14 8.25 14 8.625 14.1875 8.8125C14.375 9 14.75 9 15.5 9H19H21V8.1875C21 8.09538 20.9813 8.006 20.9478 7.9235ZM18.7163 7.5L15.6487 4.34712V7.5H18.7163Z" fill="#475364"/>
<path opacity="0.88" d="M16 10C16 10 15 10 15 11V18C15 19 16 19 16 19C16 19 17 19 17 18V11C17 10 16 10 16 10Z" fill="#475364"/>
<path opacity="0.72" d="M13 12C13 12 12 12 12 13L12 18C12 19 13 19 13 19C13 19 14 19 14 18V13C14 12 13 12 13 12Z" fill="#475364"/>
<path opacity="0.6" d="M10 15C10 15 9 15 9 16V18C9 19 10 19 10 19C10 19 11 19 11 18V16C11 15 10 15 10 15Z" fill="#475364"/>
</svg>
