<svg width="24" height="24" viewBox="0 0 24 24" fill="none" xmlns="http://www.w3.org/2000/svg">
<path opacity="0.72" d="M9.51562 3C10.6719 3 11.75 3.29688 12.75 3.89062C13.75 4.45312 14.5312 5.23438 15.0938 6.23438C15.6875 7.23438 15.9844 8.32812 15.9844 9.51562C15.9844 11.1094 15.4688 12.5156 14.4375 13.7344L14.7188 14.0156H15.5156L20.4844 18.9844L18.9844 20.4844L14.0156 15.5156V14.7188L13.7344 14.4375C12.5156 15.4688 11.1094 15.9844 9.51562 15.9844C8.32812 15.9844 7.23438 15.7031 6.23438 15.1406C5.23438 14.5469 4.4375 13.75 3.84375 12.75C3.28125 11.75 3 10.6719 3 9.51562C3 8.32812 3.28125 7.23438 3.84375 6.23438C4.4375 5.23438 5.23438 4.45312 6.23438 3.89062C7.23438 3.29688 8.32812 3 9.51562 3ZM9.51562 5.01562C8.26562 5.01562 7.20312 5.45312 6.32812 6.32812C5.45312 7.20312 5.01562 8.26562 5.01562 9.51562C5.01562 10.7656 5.45312 11.8281 6.32812 12.7031C7.20312 13.5781 8.26562 14.0156 9.51562 14.0156C10.7656 14.0156 11.8281 13.5781 12.7031 12.7031C13.5781 11.8281 14.0156 10.7656 14.0156 9.51562C14.0156 8.26562 13.5781 7.20312 12.7031 6.32812C11.8281 5.45312 10.7656 5.01562 9.51562 5.01562Z" fill="black"/>
<path fill-rule="evenodd" clip-rule="evenodd" d="M9.51562 3C10.6719 3 11.75 3.29688 12.75 3.89062C13.75 4.45312 14.5312 5.23438 15.0938 6.23438C15.6875 7.23438 15.9844 8.32812 15.9844 9.51562C15.9844 11.1094 15.4688 12.5156 14.4375 13.7344L13.7344 14.4375C12.5156 15.4688 11.1094 15.9844 9.51562 15.9844C8.32812 15.9844 7.23438 15.7031 6.23438 15.1406C5.23438 14.5469 4.4375 13.75 3.84375 12.75C3.28125 11.75 3 10.6719 3 9.51562C3 8.32812 3.28125 7.23438 3.84375 6.23438C4.4375 5.23438 5.23438 4.45312 6.23438 3.89062C7.23438 3.29688 8.32812 3 9.51562 3ZM6.32812 6.32812C7.20312 5.45312 8.26562 5.01562 9.51562 5.01562C10.7656 5.01562 11.8281 5.45312 12.7031 6.32812C13.5781 7.20312 14.0156 8.26562 14.0156 9.51562C14.0156 10.7656 13.5781 11.8281 12.7031 12.7031C11.8281 13.5781 10.7656 14.0156 9.51562 14.0156C8.26562 14.0156 7.20312 13.5781 6.32812 12.7031C5.45312 11.8281 5.01562 10.7656 5.01562 9.51562C5.01562 8.26562 5.45312 7.20312 6.32812 6.32812Z" fill="black"/>
</svg>
