<svg width="24" height="24" viewBox="0 0 24 24" fill="none" xmlns="http://www.w3.org/2000/svg">
<path opacity="0.12" d="M12 15.5156C11.0312 15.5156 10.2031 15.1719 9.51562 14.4844C8.82812 13.7969 8.48438 12.9688 8.48438 12C8.48438 11.0312 8.82812 10.2031 9.51562 9.51562C10.2031 8.82812 11.0312 8.48438 12 8.48438C12.9688 8.48438 13.7969 8.82812 14.4844 9.51562C15.1719 10.2031 15.5156 11.0312 15.5156 12C15.5156 12.9688 15.1719 13.7969 14.4844 14.4844C13.7969 15.1719 12.9688 15.5156 12 15.5156Z" fill="#475364"/>
<path d="M12 15.5156C11.0312 15.5156 10.2031 15.1719 9.51562 14.4844C8.82812 13.7969 8.48438 12.9688 8.48438 12C8.48438 11.0312 8.82812 10.2031 9.51562 9.51562C10.2031 8.82812 11.0312 8.48438 12 8.48438C12.9688 8.48438 13.7969 8.82812 14.4844 9.51562C15.1719 10.2031 15.5156 11.0312 15.5156 12C15.5156 12.9688 15.1719 13.7969 14.4844 14.4844C13.7969 15.1719 12.9688 15.5156 12 15.5156ZM19.4531 12.9844C19.4844 12.6094 19.5 12.2812 19.5 12C19.5 11.7188 19.4844 11.3906 19.4531 11.0156L21.5625 9.375C21.6562 9.28125 21.7031 9.1875 21.7031 9.09375C21.7344 8.96875 21.7188 8.84375 21.6562 8.71875L19.6406 5.25C19.6094 5.15625 19.5312 5.09375 19.4062 5.0625C19.2812 5 19.1562 5 19.0312 5.0625L16.5469 6.04688C15.9844 5.60938 15.4219 5.28125 14.8594 5.0625L14.4844 2.4375C14.4844 2.3125 14.4375 2.21875 14.3438 2.15625C14.25 2.0625 14.1406 2.01562 14.0156 2.01562H9.98438C9.85938 2.01562 9.75 2.0625 9.65625 2.15625C9.5625 2.21875 9.51562 2.3125 9.51562 2.4375L9.14062 5.0625C8.57812 5.28125 8.01562 5.60938 7.45312 6.04688L4.96875 5.0625C4.84375 5 4.71875 5 4.59375 5.0625C4.46875 5.09375 4.39062 5.15625 4.35938 5.25L2.34375 8.71875C2.28125 8.84375 2.25 8.96875 2.25 9.09375C2.28125 9.1875 2.34375 9.28125 2.4375 9.375L4.54688 11.0156C4.51562 11.3906 4.5 11.7188 4.5 12C4.5 12.2812 4.51562 12.6094 4.54688 12.9844L2.4375 14.625C2.34375 14.7188 2.28125 14.8281 2.25 14.9531C2.25 15.0469 2.28125 15.1562 2.34375 15.2812L4.35938 18.75C4.39062 18.8438 4.46875 18.9219 4.59375 18.9844C4.71875 19.0156 4.84375 19 4.96875 18.9375L7.45312 17.9531C8.01562 18.3906 8.57812 18.7188 9.14062 18.9375L9.51562 21.5625C9.51562 21.6875 9.5625 21.7812 9.65625 21.8438C9.75 21.9375 9.85938 21.9844 9.98438 21.9844H14.0156C14.1406 21.9844 14.25 21.9375 14.3438 21.8438C14.4375 21.7812 14.4844 21.6875 14.4844 21.5625L14.8594 18.9375C15.4531 18.6875 16.0156 18.3594 16.5469 17.9531L19.0312 18.9375C19.1562 19 19.2812 19.0156 19.4062 18.9844C19.5312 18.9219 19.6094 18.8438 19.6406 18.75L21.6562 15.2812C21.7188 15.1562 21.7344 15.0469 21.7031 14.9531C21.7031 14.8281 21.6562 14.7188 21.5625 14.625L19.4531 12.9844Z" fill="#475364"/>
</svg>
