<svg width="56" height="56" viewBox="0 0 56 56" fill="none" xmlns="http://www.w3.org/2000/svg">
<path opacity="0.8" d="M28 32.7031C31.3476 32.7031 34.4406 33.2135 37.2788 34.2344C40.1897 35.1701 42.4821 36.4887 44.156 38.1901C45.8298 39.8064 46.6667 41.5929 46.6667 43.5495V49.0365H9.33334V43.5495C9.33334 41.5929 10.1703 39.8064 11.8441 38.1901C13.5179 36.4887 15.7739 35.1701 18.6121 34.2344C21.5231 33.2135 24.6524 32.7031 28 32.7031Z" fill="#475364"/>
<path d="M28 6.96289C31.2026 6.96289 33.9477 8.10017 36.2353 10.3747C38.5229 12.6493 39.6667 15.4243 39.6667 18.6996C39.6667 21.884 38.5229 24.6135 36.2353 26.888C33.9477 29.1626 31.2026 30.2999 28 30.2999C24.7974 30.2999 22.0523 29.1626 19.7647 26.888C17.4771 24.6135 16.3333 21.884 16.3333 18.6996C16.3333 15.4243 17.4771 12.6493 19.7647 10.3747C22.0523 8.10017 24.7974 6.96289 28 6.96289Z" fill="#475364"/>
</svg>
