<svg width="24" height="24" viewBox="0 0 24 24" fill="none" xmlns="http://www.w3.org/2000/svg">
<path opacity="0.08" d="M2 3.76018C2 2.78955 2.78434 2 3.74834 2H20.2517C21.2157 2 22 2.78955 22 3.76018L21.9148 16.9063C21.9148 17.8769 21.1304 18.6667 20.1664 18.6667H6.44444L2.81393 21.8828C2.72285 21.9599 2.60953 22 2.49486 22C2.42408 22 2.35292 21.9846 2.2862 21.9535C2.11158 21.8717 2 21.6955 2 21.5015V3.76018Z" fill="#475364"/>
<path fill-rule="evenodd" clip-rule="evenodd" d="M3.74834 2C2.78434 2 2 2.78955 2 3.76018V21.5015C2 21.6955 2.11158 21.8717 2.2862 21.9535C2.35292 21.9846 2.42408 22 2.49486 22C2.60953 22 2.72285 21.9599 2.81393 21.8828L6.44444 18.6667H20.1664C21.1304 18.6667 21.9148 17.8769 21.9148 16.9063L22 3.76018C22 2.78955 21.2157 2 20.2517 2H3.74834ZM20.1408 3.11111C20.5533 3.11111 20.8889 3.43616 20.8889 3.83591V16.8306C20.8889 17.2303 20.5533 17.5556 20.1408 17.5556H5.84063C5.72559 17.5556 5.61418 17.5949 5.52603 17.6669L3.11111 19.7778V3.83591C3.11111 3.43616 3.4467 3.11111 3.85917 3.11111H20.1408Z" fill="#475364"/>
<path opacity="0.72" d="M6.88193 14.8098V11.791L8.5329 11.9938V13.3672C8.53245 13.8001 8.37651 14.2151 8.09929 14.5212C7.82207 14.8273 7.44621 14.9995 7.05417 15C7.00849 15 6.96468 14.98 6.93237 14.9443C6.90007 14.9086 6.88193 14.8602 6.88193 14.8098Z" fill="#475364"/>
<path d="M13.7261 6.19018V8.54062L13.7262 11.7741V14.1246C13.7262 14.1565 13.7189 14.188 13.7049 14.2161C13.691 14.2441 13.6709 14.2678 13.6465 14.285C13.622 14.3022 13.5941 14.3123 13.5652 14.3143C13.5363 14.3164 13.5073 14.3104 13.4811 14.2969L10.2393 12.6264C9.6936 12.3461 9.12128 12.1339 8.53295 11.9938L6.88198 11.791L6.82549 8.52458C7.06438 8.52458 7.30362 8.5119 7.5422 8.48813L7.90979 8.44264C8.45946 8.35952 9.00002 8.21476 9.5231 8.0106L9.86758 7.86665C9.99299 7.81078 10.1169 7.75134 10.2392 7.68832L13.481 6.01784C13.5072 6.00432 13.5361 5.99832 13.565 6.0004C13.5939 6.00249 13.6219 6.01259 13.6463 6.02977C13.6708 6.04695 13.6909 6.07066 13.7048 6.0987C13.7187 6.12673 13.7261 6.1582 13.7261 6.19018Z" fill="#475364"/>
<path opacity="0.88" d="M6.8256 11.7901C6.67262 11.7897 6.52274 11.7425 6.39256 11.6538C6.32096 11.5973 6.16554 11.4565 6.11666 11.346C6.0402 11.2048 5.99991 11.0433 6.00012 10.8788V10.6171L6 10.2203V9.43601C6.00025 9.19435 6.0873 8.96267 6.24206 8.7918C6.39681 8.62092 6.60663 8.5248 6.82549 8.52454L6.88198 11.791C6.86318 11.7908 6.84437 11.7901 6.8256 11.7901Z" fill="#475364"/>
<path opacity="0.72" d="M14.637 11.2289C14.4029 11.526 14.0794 11.7197 13.7261 11.7742L13.726 8.54065C14.0792 8.59512 14.4029 8.78877 14.637 9.08589C14.8711 9.38301 15 9.76357 15 10.1574C15 10.5512 14.8711 10.9318 14.637 11.2289Z" fill="#475364"/>
<path opacity="0.48" d="M16.0607 10.0607C16.0607 10.3368 16.3239 10.5607 16.5607 10.5607L17.5607 10.5607C17.7975 10.5607 18.0607 10.3368 18.0607 10.0607C18.0607 9.7845 17.7975 9.56067 17.5607 9.56067L16.5607 9.56067C16.3239 9.56067 16.0607 9.7845 16.0607 10.0607Z" fill="#475364"/>
<path opacity="0.32" d="M15.3536 8.76777C15.5488 8.96305 15.8932 8.93523 16.0607 8.76777L16.7678 8.06066C16.9352 7.8932 16.9631 7.54884 16.7678 7.35355C16.5725 7.15827 16.2281 7.18609 16.0607 7.35355L15.3536 8.06066C15.1861 8.22812 15.1583 8.57248 15.3536 8.76777Z" fill="#475364"/>
<path opacity="0.32" d="M16.7678 12.7678C16.9631 12.5725 16.9353 12.2282 16.7678 12.0607L16.0607 11.3536C15.8932 11.1861 15.5489 11.1583 15.3536 11.3536C15.1583 11.5489 15.1861 11.8932 15.3536 12.0607L16.0607 12.7678C16.2282 12.9353 16.5725 12.9631 16.7678 12.7678Z" fill="#475364"/>
</svg>
