<svg width="24" height="24" viewBox="0 0 24 24" fill="none" xmlns="http://www.w3.org/2000/svg">
<path opacity="0.64" fill-rule="evenodd" clip-rule="evenodd" d="M4 18V18.6429C3.99979 19.3787 4.60058 19.9807 5.35455 20H21.6455C22.3994 19.9807 23.0003 19.3787 23 18.6429V10.3571C23.0003 9.62139 22.3995 9.01935 21.6455 9H21L21 16.2727C21.0003 17.2092 20.3678 17.9754 19.5742 18H4Z" fill="#475364"/>
<path fill-rule="evenodd" clip-rule="evenodd" d="M21 16.2727V7.7273V5.72727C21.0002 4.79077 20.3678 4.02462 19.5742 4H2.42584C1.63219 4.02462 0.999705 4.79077 1 5.72727V16.2727C0.999779 17.2092 1.63219 17.9754 2.42584 18H19.5742C20.3678 17.9754 21.0003 17.2092 21 16.2727ZM19.9933 15.9966C19.9933 15.4462 19.5471 15 18.9966 15C18.4462 15 18 15.4462 18 15.9966C18 16.547 18.4462 16.9933 18.9966 16.9933C19.547 16.9933 19.9933 16.5471 19.9933 15.9966ZM11.0381 7.00022C13.2471 7.02129 15.0209 8.82911 14.9998 11.0381C14.9787 13.2471 13.1709 15.0209 10.9619 14.9998C8.76779 14.9789 7.00015 13.1944 7 11.0002C6.99993 8.79105 8.79068 7.00015 10.9998 7L11.0381 7.00022ZM3.99327 5.99664C3.99327 6.54707 3.54706 6.99328 2.99664 6.99328C2.44621 6.99328 2 6.54707 2 5.99664C2 5.44622 2.44621 5.00001 2.99664 5.00001C3.54706 5.00001 3.99327 5.44622 3.99327 5.99664Z" fill="#475364"/>
<path opacity="0.08" d="M18.9966 15C19.5471 15 19.9933 15.4462 19.9933 15.9966C19.9933 16.5471 19.547 16.9933 18.9966 16.9933C18.4462 16.9933 18 16.547 18 15.9966C18 15.4462 18.4462 15 18.9966 15Z" fill="#475364"/>
<path opacity="0.08" d="M11.0381 7.00022C13.2471 7.02129 15.0209 8.82911 14.9998 11.0381C14.9787 13.2471 13.1709 15.0209 10.9619 14.9998C8.76779 14.9789 7.00015 13.1944 7 11.0002C6.99993 8.79105 8.79068 7.00015 10.9998 7C11.0127 7.00007 11.0254 7.00015 11.0381 7.00022Z" fill="#475364"/>
<path opacity="0.08" d="M2.99664 6.99327C3.54706 6.99327 3.99327 6.54706 3.99327 5.99663C3.99327 5.44621 3.54706 5 2.99664 5C2.44621 5 2 5.44621 2 5.99663C2 6.54706 2.44621 6.99327 2.99664 6.99327Z" fill="#475364"/>
</svg>
