<svg width="24" height="24" viewBox="0 0 24 24" fill="none" xmlns="http://www.w3.org/2000/svg">
<path opacity="0.7" d="M12 8.99998C11.6041 8.99121 11.2106 9.06361 10.8438 9.21272C10.4769 9.36183 10.1445 9.58449 9.86701 9.86698C9.58452 10.1445 9.36186 10.4769 9.21275 10.8437C9.06364 11.2106 8.99124 11.6041 9.00001 12C8.99124 12.3959 9.06364 12.7894 9.21275 13.1562C9.36186 13.5231 9.58452 13.8555 9.86701 14.133C10.1445 14.4155 10.4769 14.6381 10.8438 14.7872C11.2106 14.9363 11.6041 15.0087 12 15C12.3959 15.0087 12.7894 14.9363 13.1562 14.7872C13.5231 14.6381 13.8555 14.4155 14.133 14.133C14.4155 13.8555 14.6382 13.5231 14.7873 13.1562C14.9364 12.7894 15.0088 12.3959 15 12C15.0088 11.6041 14.9364 11.2106 14.7873 10.8437C14.6382 10.4769 14.4155 10.1445 14.133 9.86698C13.8555 9.58449 13.5231 9.36183 13.1562 9.21272C12.7894 9.06361 12.3959 8.99121 12 8.99998Z" fill="#4C4C4C"/>
<path d="M12 17.016C11.1176 17.0224 10.2503 16.7873 9.49201 16.336C8.73645 15.8929 8.10709 15.2635 7.66401 14.508C7.21273 13.7497 6.97757 12.8824 6.98401 12C6.97757 11.1176 7.21273 10.2503 7.66401 9.49198C8.10709 8.73642 8.73645 8.10706 9.49201 7.66398C10.2503 7.21269 11.1176 6.97753 12 6.98398C12.8824 6.97753 13.7497 7.21269 14.508 7.66398C15.2636 8.10706 15.8929 8.73642 16.336 9.49198C16.7873 10.2503 17.0224 11.1176 17.016 12C17.0224 12.8824 16.7873 13.7497 16.336 14.508C15.8929 15.2635 15.2636 15.8929 14.508 16.336C13.7497 16.7873 12.8824 17.0224 12 17.016ZM12 4.49998C9.60361 4.47843 7.26064 5.2079 5.30001 6.58598C3.34808 7.91388 1.84352 9.8012 0.984009 12C1.84352 14.1987 3.34808 16.0861 5.30001 17.414C7.26064 18.7921 9.60361 19.5215 12 19.5C14.3964 19.5215 16.7394 18.7921 18.7 17.414C20.6519 16.0861 22.1565 14.1987 23.016 12C22.1565 9.8012 20.6519 7.91388 18.7 6.58598C16.7394 5.2079 14.3964 4.47843 12 4.49998Z" fill="#4C4C4C"/>
</svg>
